# xmcd
#
# Track frame offsets:
#	150
#	22088
#	42751
#	63976
#	83439
#	99472
#	117397
#	137923
#	155280
#	176142
#	197056
#	215728
#	235243
#	256158
#	275880
#	299437
#	317129
#	336658
#
# Disc length: 4658 seconds
#
# Revision: 3
# Processed by: cddbd v1.5.2PL0 Copyright (c) Steve Scherf et al.
# Submitted via: EZCDAudioConverter 2.0.5.1
#
DISCID=17123012
DTITLE=阿杜 - 醇情歌
DYEAR=2004
DGENRE=pop
TTITLE0=一首情歌
TTITLE1=愛字怎麼寫
TTITLE2=天涯海角
TTITLE3=認真
TTITLE4=他一定很愛你
TTITLE5=小說
TTITLE6=你就像個小孩
TTITLE7=離別
TTITLE8=走向前
TTITLE9=撕夜
TTITLE10=堅持到底
TTITLE11=一個人住
TTITLE12=下雨的時候會想你
TTITLE13=天黑(弦樂版)
TTITLE14=Andy
TTITLE15=天天看到你
TTITLE16=祝你快樂
TTITLE17=他一定很愛你(Demo版)
EXTD=
EXTT0=
EXTT1=
EXTT2=
EXTT3=
EXTT4=
EXTT5=
EXTT6=
EXTT7=
EXTT8=
EXTT9=
EXTT10=
EXTT11=
EXTT12=
EXTT13=
EXTT14=
EXTT15=
EXTT16=
EXTT17=
PLAYORDER=
